HIERARCHY
ROOT Hips
{
	OFFSET 0.000000 0.000000 0.000000 
	CHANNELS 6 Xposition Yposition Zposition Zrotation Yrotation Xrotation
	JOINT LeftUpLeg
	{
		OFFSET 1.363060 -1.794630 0.839290 
		CHANNELS 3 Zrotation Yrotation Xrotation
		JOINT LeftLeg
		{
			OFFSET 2.448110 -6.726130 0.000000 
			CHANNELS 3 Zrotation Yrotation Xrotation
			JOINT LeftFoot
			{
				OFFSET 2.562200 -7.039590 0.000000 
				CHANNELS 3 Zrotation Yrotation Xrotation
				JOINT LeftToeBase
				{
					OFFSET 0.157640 -0.433110 2.322550 
					CHANNELS 3 Zrotation Yrotation Xrotation
					End Site
					{
						OFFSET 0.000000 0.000000 0.000000 
					}
				}
			}
		}
	}
	JOINT RightUpLeg
	{
		OFFSET -1.305520 -1.794630 0.839290 
		CHANNELS 3 Zrotation Yrotation Xrotation
		JOINT RightLeg
		{
			OFFSET -2.542530 -6.985550 0.000000 
			CHANNELS 3 Zrotation Yrotation Xrotation
			JOINT RightFoot
			{
				OFFSET -2.568260 -7.056230 0.000000 
				CHANNELS 3 Zrotation Yrotation Xrotation
				JOINT RightToeBase
				{
					OFFSET -0.164730 -0.452590 2.363150 
					CHANNELS 3 Zrotation Yrotation Xrotation
					End Site
					{
						OFFSET 0.000000 0.000000 0.000000 
					}
				}
			}
		}
	}
	JOINT Spine
	{
		OFFSET 0.028270 2.035590 -0.193380 
		CHANNELS 3 Zrotation Yrotation Xrotation
		JOINT Spine1
		{
			OFFSET 0.056720 2.048850 -0.042750 
			CHANNELS 3 Zrotation Yrotation Xrotation
			JOINT Neck1
			{
				OFFSET -0.054170 1.746240 0.172020 
				CHANNELS 3 Zrotation Yrotation Xrotation
				JOINT Head
				{
					OFFSET 0.104070 1.761360 -0.123970 
					CHANNELS 3 Zrotation Yrotation Xrotation
					End Site
					{
						OFFSET 0.000000 0.000000 0.000000 
					}
				}
			}
			JOINT LeftArm
			{
				OFFSET 3.362410 1.200890 -0.311210 
				CHANNELS 3 Zrotation Yrotation Xrotation
				JOINT LeftForeArm
				{
					OFFSET 4.983000 -0.000000 -0.000000 
					CHANNELS 3 Zrotation Yrotation Xrotation
					JOINT LeftHand
					{
						OFFSET 3.483560 -0.000000 -0.000000 
						CHANNELS 3 Zrotation Yrotation Xrotation
						JOINT LeftHandIndex1
						{
							OFFSET 0.715260 -0.000000 -0.000000 
							CHANNELS 3 Zrotation Yrotation Xrotation
							End Site
							{
								OFFSET 0.000000 0.000000 0.000000 
							}
						}
					}
				}
			}
			JOINT RightArm
			{
				OFFSET -3.136600 1.374050 -0.404650 
				CHANNELS 3 Zrotation Yrotation Xrotation
				JOINT RightForeArm
				{
					OFFSET -5.241900 -0.000000 -0.000000 
					CHANNELS 3 Zrotation Yrotation Xrotation
					JOINT RightHand
					{
						OFFSET -3.444170 -0.000000 -0.000000 
						CHANNELS 3 Zrotation Yrotation Xrotation
						JOINT RightHandIndex1
						{
							OFFSET -0.622530 -0.000000 -0.000000 
							CHANNELS 3 Zrotation Yrotation Xrotation
							End Site
							{
								OFFSET 0.000000 0.000000 0.000000 
							}
						}
					}
				}
			}
		}
	}
}
MOTION
Frames: 12
Frame Time: 0.041667
2.543098 16.313726 -1.676951 -1.364557 -25.284941 16.009278 -27.795317 -2.805333 -54.289211 8.324812 17.568078 56.613785 -0.563191 6.858092 -12.793979 0.219300 -3.014600 -8.319400 7.593527 27.317775 -56.511990 -5.780787 -15.283283 46.793311 -0.270834 4.813709 1.399383 -1.804700 8.447000 -24.080100 4.633256 -0.711492 33.661185 -1.487465 1.468429 -8.144308 -6.206568 2.767275 -22.121064 -3.278500 1.005400 -6.025800 -77.094518 -36.950041 57.749886 138.995684 -48.545736 -100.417706 2.579573 0.627241 28.172693 -7.125000 0.000000 0.000000 65.199013 39.914309 45.469116 -132.414003 45.715546 -97.803592 -0.845501 2.959338 32.361550 7.125000 0.000000 0.000000 
2.529362 16.317436 -1.684270 -1.226093 -24.956783 16.176640 -27.841115 -3.072341 -54.417559 8.285023 17.552297 56.487650 -0.547735 6.728439 -12.627664 0.216400 -2.994600 -8.263800 7.401529 27.215687 -56.747057 -5.783966 -15.325805 46.832475 -0.261641 4.559396 1.270829 -1.785500 8.404200 -23.948800 4.624572 -0.730006 33.610331 -1.428300 1.459835 -8.114547 -6.244131 2.737236 -21.991910 -3.301500 0.989200 -5.979400 -76.949245 -36.965899 57.648210 138.944276 -48.565223 -100.377342 2.581885 0.633042 28.255191 -7.125000 0.000000 0.000000 65.411980 39.810972 45.657991 -132.492599 45.697852 -97.880507 -0.826687 2.929639 32.474264 7.125000 0.000000 0.000000 
2.515326 16.323050 -1.691489 -1.263465 -24.644783 16.276956 -27.727276 -3.171026 -54.454672 8.236767 17.529129 56.329247 -0.530751 6.583173 -12.445124 0.216600 -2.996000 -8.267700 7.470763 27.148084 -56.776775 -5.788835 -15.346111 46.871125 -0.252453 4.337792 1.136068 -1.779900 8.391800 -23.910500 4.689035 -0.728992 33.580962 -1.436169 1.466466 -8.136340 -6.218072 2.696167 -21.830921 -3.298600 0.963400 -5.920000 -76.813255 -37.037371 57.604399 139.072591 -48.477690 -100.476134 2.548871 0.678760 27.989312 -7.125000 0.000000 0.000000 65.566224 39.729865 45.793061 -132.595153 45.663371 -97.978072 -0.819297 2.893937 32.504050 7.125000 0.000000 0.000000 
2.501590 16.332876 -1.695198 -1.150456 -24.353565 16.285011 -27.778119 -3.279343 -54.379198 8.177946 17.476559 56.132268 -0.516188 6.456583 -12.290014 0.223200 -3.041300 -8.393700 7.398302 27.007804 -56.773435 -5.787749 -15.366056 46.885085 -0.247479 4.168225 0.994549 -1.847800 8.541600 -24.371600 4.770409 -0.761958 33.536819 -1.346737 1.464126 -8.193179 -6.150682 2.660930 -21.731408 -3.264200 0.948300 -5.896500 -76.651656 -37.066912 57.489918 139.320535 -48.324604 -100.660125 2.521193 0.724700 27.650451 -7.125000 0.000000 0.000000 65.600074 39.588532 45.946041 -132.758570 45.589684 -98.135252 -0.805469 2.850833 32.535278 7.125000 0.000000 0.000000 
2.488857 16.345408 -1.696401 -0.716744 -24.120796 16.256683 -28.168406 -3.464103 -54.288557 8.109855 17.399885 55.905809 -0.518693 6.397195 -12.098081 0.235700 -3.124600 -8.625900 6.971909 26.735334 -56.923073 -5.780313 -15.407377 46.877977 -0.249682 4.111513 0.932626 -1.773200 8.376700 -23.864300 4.671514 -0.796885 33.485763 -1.158418 1.444865 -8.206796 -6.161717 2.618444 -21.681291 -3.262800 0.933100 -5.893300 -76.464283 -37.118503 57.340475 139.385953 -48.270006 -100.714254 2.512017 0.730261 27.628895 -7.125000 0.000000 0.000000 65.639913 39.359945 46.049136 -132.971388 45.496821 -98.331650 -0.780903 2.811165 32.598361 7.125000 0.000000 0.000000 
2.478531 16.359746 -1.693494 -0.537258 -23.932049 16.226469 -28.326635 -3.514109 -54.152849 8.046058 17.333974 55.691497 -0.528873 6.380503 -11.928504 0.246600 -3.195400 -8.823200 6.867928 26.516690 -56.882052 -5.771636 -15.422077 46.861253 -0.253084 4.110729 0.884361 -1.682000 8.169600 -23.230400 4.621684 -0.818418 33.484145 -1.090742 1.431056 -8.158448 -6.168801 2.600526 -21.543186 -3.261400 0.926500 -5.845600 -76.303125 -37.307293 57.163470 139.246272 -48.320343 -100.628241 2.511527 0.692605 27.760596 -7.125000 0.000000 0.000000 65.763689 39.315658 46.198157 -133.034400 45.469565 -98.407690 -0.753732 2.769301 32.662667 7.125000 0.000000 0.000000 
2.467201 16.367766 -1.692391 -0.525914 -23.827286 16.250647 -28.321614 -3.465462 -54.095660 7.996202 17.294199 55.526023 -0.498716 6.207133 -11.846062 0.209700 -2.948200 -8.134600 6.912579 26.447531 -56.853883 -5.768841 -15.425992 46.859815 -0.253315 4.088617 0.834138 -1.641900 8.076600 -22.947100 4.639161 -0.791355 33.474713 -1.056167 1.449569 -8.138264 -6.087685 2.592965 -21.376482 -3.224500 0.922200 -5.790700 -76.152812 -37.459195 57.058721 139.144812 -48.353694 -100.567237 2.516869 0.660604 27.805181 -7.125000 0.000000 0.000000 65.939246 39.341718 46.403061 -133.051320 45.465857 -98.442795 -0.729631 2.732384 32.588323 7.125000 0.000000 0.000000 
2.456874 16.370574 -1.694296 -0.473637 -23.694045 16.266777 -28.344569 -3.469881 -54.095389 7.964127 17.270647 55.420142 -0.477808 6.078784 -11.762228 0.203900 -2.907200 -8.020400 6.909390 26.356381 -56.875378 -5.766340 -15.437854 46.863575 -0.252326 4.042159 0.788992 -1.642900 8.078800 -22.953800 4.634196 -0.781451 33.441169 -1.009738 1.454830 -8.209722 -6.017937 2.604810 -21.199730 -3.198000 0.924800 -5.725300 -76.008851 -37.546058 56.974797 139.144388 -48.338689 -100.574682 2.519296 0.647010 27.876165 -7.125000 0.000000 0.000000 66.128918 39.288112 46.601689 -133.107417 45.454255 -98.501900 -0.707270 2.703703 32.493656 7.125000 0.000000 0.000000 
2.448453 16.373180 -1.696702 -0.434375 -23.485427 16.264747 -28.318658 -3.555767 -54.074428 7.941282 17.251250 55.339728 -0.455036 5.936923 -11.663187 0.199900 -2.879100 -7.942400 6.952441 26.182235 -56.875857 -5.766974 -15.458252 46.885159 -0.255186 4.061256 0.761728 -1.654200 8.105400 -23.034500 4.621850 -0.799541 33.389882 -1.009636 1.440780 -8.321344 -5.983580 2.568524 -21.127896 -3.187100 0.903600 -5.700100 -75.861182 -37.621341 56.986172 139.215920 -48.287239 -100.628516 2.527221 0.654581 28.076509 -7.125000 0.000000 0.000000 66.360627 39.238579 46.756507 -133.110485 45.475391 -98.512491 -0.682835 2.676914 32.404026 7.125000 0.000000 0.000000 
2.441936 16.374785 -1.699008 -0.273072 -23.286432 16.278490 -28.430732 -3.701852 -54.083574 7.922089 17.232530 55.274788 -0.455077 5.903578 -11.566298 0.212300 -2.966200 -8.184600 6.865378 25.927901 -56.978500 -5.768140 -15.497703 46.916933 -0.260202 4.097448 0.735858 -1.663100 8.126000 -23.097400 4.514772 -0.824512 33.335654 -1.009765 1.413158 -8.394760 -5.845097 2.552997 -21.181114 -3.135500 0.888900 -5.717700 -75.630032 -37.791763 56.954826 139.242772 -48.244523 -100.658523 2.520634 0.665266 28.139728 -7.125000 0.000000 0.000000 66.629804 39.282805 46.947175 -133.024641 45.537187 -98.445291 -0.670591 2.654266 32.405918 7.125000 0.000000 0.000000 
2.433213 16.377191 -1.699810 -0.131374 -23.152850 16.286426 -28.556729 -3.727408 -54.095156 7.905530 17.216269 55.219471 -0.457765 5.881763 -11.465948 0.245100 -3.185800 -8.796400 6.816412 25.701820 -57.064587 -5.773167 -15.535146 46.959826 -0.263911 4.132467 0.738305 -1.653400 8.103300 -23.028400 4.439989 -0.820335 33.302278 -0.971488 1.407912 -8.414587 -5.737335 2.543420 -21.221837 -3.092900 0.879300 -5.728100 -75.462930 -38.049038 56.922433 139.150453 -48.267241 -100.604533 2.512312 0.662239 28.119385 -7.125000 0.000000 0.000000 66.839395 39.297186 47.127630 -132.943080 45.595028 -98.374209 -0.671808 2.643339 32.443965 7.125000 0.000000 0.000000 
2.418074 16.381402 -1.700813 -0.182485 -23.077366 16.255435 -28.489416 -3.572964 -54.047261 7.897548 17.206578 55.187231 -0.446040 5.801653 -11.399162 0.270800 -3.347300 -9.247200 7.000706 25.631282 -56.980254 -5.789119 -15.548345 47.026751 -0.266049 4.155720 0.672173 -1.599600 7.976800 -22.643600 4.545543 -0.782055 33.290337 -0.886265 1.445421 -8.446114 -5.657741 2.543049 -21.202738 -3.054100 0.879100 -5.720400 -75.376847 -38.191916 56.933281 139.123763 -48.268186 -100.591978 2.519391 0.651893 28.025166 -7.125000 0.000000 0.000000 66.943844 39.273416 47.260865 -132.861091 45.646171 -98.305049 -0.668837 2.634135 32.519360 7.125000 0.000000 0.000000 
